<svg width="39" height="40" viewBox="0 0 39 40" fill="none" xmlns="http://www.w3.org/2000/svg">
<path fill-rule="evenodd" clip-rule="evenodd" d="M38.455 9.01818C38.459 9.02818 38.465 9.03818 38.467 9.04818C38.4812 9.1017 38.4886 9.1568 38.489 9.21218V17.7982C38.4893 17.908 38.4607 18.016 38.4061 18.1112C38.3515 18.2065 38.2729 18.2858 38.178 18.3412L31.04 22.4912V30.7142C31.0402 30.8241 31.0114 30.9321 30.9566 31.0274C30.9019 31.1227 30.823 31.202 30.728 31.2572L15.829 39.9172C15.7947 39.9357 15.7585 39.9505 15.721 39.9612C15.707 39.9672 15.694 39.9752 15.679 39.9792C15.5749 40.0072 15.4651 40.0072 15.361 39.9792C15.3514 39.9767 15.342 39.9734 15.333 39.9692L15.313 39.9592C15.278 39.9462 15.243 39.9352 15.21 39.9162L0.311001 31.2572C0.216218 31.2018 0.137622 31.1224 0.0830524 31.0272C0.0284829 30.9319 -0.000153033 30.824 6.15061e-07 30.7142V4.95618C0.000384893 4.90119 0.00743638 4.84646 0.0210006 4.79318C0.0270006 4.77418 0.0370006 4.75818 0.0430006 4.74018L0.0630006 4.68718C0.0685761 4.67204 0.075261 4.65733 0.0830006 4.64318C0.0950006 4.62318 0.112001 4.60618 0.126001 4.58718C0.144001 4.56218 0.159001 4.53718 0.181001 4.51418C0.199001 4.49618 0.221001 4.48418 0.241001 4.46718C0.264001 4.44918 0.285001 4.42918 0.310001 4.41418L7.76 0.0841765C7.85412 0.0293656 7.96109 0.000488281 8.07 0.000488281C8.17892 0.000488281 8.28588 0.0293656 8.38 0.0841765L15.83 4.41418C15.855 4.42918 15.876 4.44918 15.899 4.46718L15.92 4.48318C15.934 4.49318 15.948 4.50318 15.96 4.51418C15.9749 4.52988 15.9883 4.54696 16 4.56518L16.015 4.58718C16.028 4.60718 16.045 4.62218 16.057 4.64318C16.074 4.67318 16.085 4.70718 16.097 4.74018L16.107 4.76218L16.119 4.79218C16.133 4.84571 16.1401 4.90084 16.14 4.95618V21.0442L22.348 17.4362V9.21218C22.3483 9.15712 22.3557 9.10234 22.37 9.04918C22.375 9.03018 22.385 9.01418 22.391 8.99618L22.398 8.97618C22.4104 8.92562 22.4368 8.87955 22.474 8.84318C22.492 8.81818 22.508 8.79318 22.529 8.77018C22.539 8.76018 22.549 8.75318 22.559 8.74518C22.569 8.73818 22.58 8.73118 22.589 8.72318L22.625 8.69318C22.6354 8.68467 22.6464 8.67698 22.658 8.67018L30.108 4.34018C30.2021 4.28537 30.3091 4.25649 30.418 4.25649C30.5269 4.25649 30.6339 4.28537 30.728 4.34018L38.178 8.67018C38.204 8.68518 38.224 8.70618 38.247 8.72318L38.269 8.73918C38.282 8.74918 38.296 8.75918 38.307 8.77018C38.322 8.78613 38.3354 8.80355 38.347 8.82218L38.363 8.84318L38.379 8.86318C38.389 8.87518 38.398 8.88618 38.405 8.89918C38.4185 8.92485 38.4299 8.95161 38.439 8.97918L38.445 8.99618L38.455 9.01818ZM9.322 26.4532L15.518 29.9932L29.17 22.1262L22.969 18.5212L9.322 26.4532ZM29.798 21.0442V13.9042L23.59 10.2972V17.4372L29.797 21.0442H29.798ZM36.624 9.21418L30.418 5.60618L24.213 9.21318L30.418 12.8192L36.624 9.21318V9.21418ZM8.691 9.64818V25.3742L14.899 21.7652V6.04018L8.69 9.64818H8.691ZM14.275 4.95618L8.07 1.35018L1.864 4.95618L8.07 8.56318L14.275 4.95618ZM7.449 9.65018L1.241 6.04018V30.3502L14.9 38.2902V31.0802L7.765 27.0042H7.763L7.759 27.0002C7.734 26.9852 7.714 26.9652 7.692 26.9472C7.6704 26.9349 7.65056 26.9198 7.633 26.9022L7.631 26.9002C7.618 26.8872 7.607 26.8712 7.596 26.8562C7.59084 26.8487 7.58551 26.8414 7.58 26.8342L7.55 26.7962C7.54414 26.7889 7.53879 26.7812 7.534 26.7732L7.533 26.7712C7.52331 26.7541 7.5156 26.736 7.51 26.7172L7.5 26.6932L7.485 26.6602C7.47926 26.6479 7.47457 26.6352 7.471 26.6222C7.46559 26.5999 7.46224 26.5771 7.461 26.5542L7.458 26.5292C7.4569 26.5205 7.45557 26.5118 7.454 26.5032C7.452 26.4892 7.449 26.4742 7.449 26.4592V9.65018V9.65118V9.65018ZM16.14 31.0802V38.2902L29.797 30.3532V23.2102L16.14 31.0802V31.0812V31.0802ZM31.04 21.0432L37.248 17.4352V10.2952L31.04 13.9052V21.0452V21.0432Z" fill="#374151"/>
</svg>
