<svg width="44" height="27" viewBox="0 0 44 27" fill="none" xmlns="http://www.w3.org/2000/svg">
<path fill-rule="evenodd" clip-rule="evenodd" d="M30.316 0C34.3 0 37.529 3.256 37.529 7.273C37.5324 8.76568 37.0764 10.2232 36.2228 11.4478C35.3693 12.6724 34.1596 13.6046 32.758 14.118L38.572 24.58H42.552C43.165 24.58 43.662 25.08 43.662 25.698C43.662 26.316 43.165 26.816 42.552 26.816H1.10998C0.497977 26.816 0.000976562 26.316 0.000976562 25.698C0.000976562 25.08 0.497976 24.58 1.11098 24.58H5.09098L15.444 6.018C15.5367 5.85099 15.6712 5.71086 15.8342 5.61125C15.9972 5.51164 16.1832 5.45595 16.3741 5.4496C16.5651 5.44326 16.7544 5.48648 16.9236 5.57505C17.0929 5.66362 17.2363 5.79452 17.34 5.955L23.288 15.144L25.138 12.335C23.8291 10.9752 23.0995 9.16033 23.103 7.273C23.103 3.256 26.333 0 30.317 0H30.316V0ZM24.607 17.183L29.395 24.58H36.029L28.572 11.162L24.607 17.183V17.183ZM26.747 24.58L16.48 8.72L7.63498 24.58H26.747ZM35.449 7.273C35.4519 8.39514 35.0899 9.48781 34.4174 10.3861C33.7449 11.2845 32.7985 11.9397 31.721 12.253L29.62 8.472C29.5278 8.30537 29.3941 8.16537 29.232 8.06556C29.0698 7.96574 28.8846 7.90949 28.6943 7.90225C28.504 7.895 28.3151 7.93702 28.1458 8.02422C27.9765 8.11143 27.8326 8.24086 27.728 8.4L26.326 10.53C25.5835 9.60707 25.1797 8.45753 25.182 7.273C25.182 4.414 27.481 2.097 30.316 2.097C33.151 2.097 35.449 4.414 35.449 7.273V7.273Z" fill="#374151"/>
</svg>
